<svg width="37" height="36" viewBox="0 0 37 36" fill="none" xmlns="http://www.w3.org/2000/svg">
<path d="M30.3126 4.5C30.3126 4.94755 30.1348 5.37678 29.8183 5.69324C29.5018 6.00971 29.0726 6.1875 28.6251 6.1875C25.4932 6.19085 22.4906 7.43645 20.2761 9.651C18.0615 11.8655 16.8159 14.8682 16.8126 18V27.4219L20.6811 23.5519C20.9982 23.2349 21.4281 23.0568 21.8765 23.0568C22.3248 23.0568 22.7548 23.2349 23.0718 23.5519C23.3888 23.8689 23.5669 24.2989 23.5669 24.7472C23.5669 25.1955 23.3888 25.6255 23.0718 25.9425L16.3218 32.6925C16.165 32.8498 15.9787 32.9746 15.7736 33.0598C15.5685 33.145 15.3486 33.1888 15.1265 33.1888C14.9044 33.1888 14.6844 33.145 14.4793 33.0598C14.2742 32.9746 14.0879 32.8498 13.9311 32.6925L7.18115 25.9425C7.02418 25.7855 6.89966 25.5992 6.81471 25.3941C6.72976 25.189 6.68604 24.9692 6.68604 24.7472C6.68604 24.2989 6.86413 23.8689 7.18115 23.5519C7.49817 23.2349 7.92813 23.0568 8.37646 23.0568C8.82479 23.0568 9.25476 23.2349 9.57177 23.5519L13.4376 27.4219V18C13.442 13.9734 15.0436 10.113 17.8908 7.26575C20.738 4.41851 24.5985 2.81697 28.6251 2.8125C29.0726 2.8125 29.5018 2.99029 29.8183 3.30676C30.1348 3.62322 30.3126 4.05245 30.3126 4.5Z" fill="#439029"/>
</svg>
