<svg width="53" height="52" viewBox="0 0 53 52" fill="none" xmlns="http://www.w3.org/2000/svg">
<path d="M8.30978 46.3625L4.22534 0.549248H49.1078L45.0193 46.3556L26.6394 51.4512L8.30978 46.3625Z" fill="#1572B6"/>
<path d="M26.667 47.5564L41.5191 43.4387L45.0132 4.29488H26.667V47.5564Z" fill="#33A9DC"/>
<path d="M26.667 20.893H34.1022L34.6157 15.1393H26.667V9.52047H40.7566L40.6217 11.0281L39.2404 26.5119H26.667V20.893Z" fill="white"/>
<path d="M26.7004 35.4855L26.6756 35.4928L20.4181 33.8033L20.018 29.3219H14.3784L15.1653 38.1444L26.6748 41.3388L26.7004 41.3315V35.4855Z" fill="#EBEBEB"/>
<path d="M33.6245 26.2742L32.9477 33.7988L26.6809 35.4904V41.3363L38.1997 38.144L38.2842 37.1946L39.2617 26.2742H33.6245Z" fill="white"/>
<path d="M26.6861 9.52047V15.1393H13.1141L13.0016 13.8767L12.7457 11.0281L12.6112 9.52047H26.6861ZM26.667 20.8938V26.5127H20.4884L20.3759 25.2501L20.1195 22.4014L19.9855 20.8938H26.667Z" fill="#EBEBEB"/>
</svg>
