<svg width="24" height="24" viewBox="0 0 24 24" fill="none" xmlns="http://www.w3.org/2000/svg">
<path d="M22.125 3C22.125 2.70163 22.0065 2.41548 21.7955 2.2045C21.5845 1.99353 21.2984 1.875 21 1.875C16.8019 1.875 12.5625 6.42562 10.1344 9.5625C9.24748 9.33351 8.31995 9.31061 7.42286 9.49556C6.52576 9.68051 5.68292 10.0684 4.95893 10.6295C4.23494 11.1906 3.64902 11.91 3.24609 12.7326C2.84315 13.5551 2.6339 14.459 2.63436 15.375C2.63436 16.5 2.34373 17.5041 1.76905 18.3525C1.52773 18.7204 1.22783 19.0462 0.881233 19.3172C0.679163 19.4484 0.525073 19.6415 0.442079 19.8677C0.359085 20.0938 0.35166 20.3408 0.42092 20.5716C0.491648 20.805 0.635918 21.0093 0.832227 21.1541C1.02854 21.2989 1.26637 21.3764 1.5103 21.375H8.6353C9.55039 21.3739 10.4531 21.1635 11.2744 20.7599C12.0956 20.3563 12.8137 19.7701 13.3737 19.0464C13.9336 18.3226 14.3206 17.4803 14.5049 16.584C14.6893 15.6877 14.6663 14.761 14.4375 13.875C17.5772 11.4422 22.125 7.2 22.125 3ZM19.6519 4.34906C19.2769 5.56031 18.419 6.92625 17.1281 8.37188C16.8469 8.68969 16.5506 9 16.2515 9.29906C15.7955 8.72688 15.2766 8.20769 14.7047 7.75125C15.0037 7.45219 15.3131 7.15875 15.6309 6.87469C17.0765 5.58281 18.4415 4.72781 19.6519 4.34906ZM8.63155 19.125H3.93748C4.57614 17.9794 4.90387 16.6865 4.88811 15.375C4.88811 14.6333 5.10804 13.9083 5.5201 13.2916C5.93215 12.6749 6.51782 12.1943 7.20304 11.9105C7.88827 11.6266 8.64227 11.5524 9.3697 11.6971C10.0971 11.8417 10.7653 12.1989 11.2898 12.7233C11.8142 13.2478 12.1714 13.916 12.3161 14.6434C12.4607 15.3708 12.3865 16.1248 12.1027 16.8101C11.8188 17.4953 11.3382 18.081 10.7215 18.493C10.1048 18.9051 9.37979 19.125 8.63811 19.125H8.63155ZM12.2109 10.5638C12.5034 10.1953 12.825 9.80531 13.17 9.40594C13.7078 9.81607 14.188 10.2966 14.5978 10.8347C14.1984 11.1797 13.8084 11.5013 13.44 11.7938C13.0918 11.3266 12.6778 10.9123 12.2109 10.5638Z" fill="#F5FBF2"/>
</svg>
