<svg width="53" height="52" viewBox="0 0 53 52" fill="none" xmlns="http://www.w3.org/2000/svg">
<g clip-path="url(#clip0_3_272)">
<path d="M18.8176 52.4062C23.652 52.4062 27.552 48.5062 27.552 43.6719V34.9375H18.8176C13.9833 34.9375 10.0833 38.8375 10.0833 43.6719C10.0833 48.5062 13.9833 52.4062 18.8176 52.4062Z" fill="#0ACF83"/>
<path d="M10.0833 26.2031C10.0833 21.3688 13.9833 17.4688 18.8176 17.4688H27.552V34.9375H18.8176C13.9833 34.9375 10.0833 31.0375 10.0833 26.2031Z" fill="#A259FF"/>
<path d="M10.0833 8.73438C10.0833 3.9 13.9833 0 18.8176 0H27.552V17.4688H18.8176C13.9833 17.4688 10.0833 13.5687 10.0833 8.73438Z" fill="#F24E1E"/>
<path d="M27.552 0H36.2864C41.1208 0 45.0208 3.9 45.0208 8.73438C45.0208 13.5687 41.1208 17.4688 36.2864 17.4688H27.552V0Z" fill="#FF7262"/>
<path d="M45.0208 26.2031C45.0208 31.0375 41.1208 34.9375 36.2864 34.9375C31.452 34.9375 27.552 31.0375 27.552 26.2031C27.552 21.3688 31.452 17.4688 36.2864 17.4688C41.1208 17.4688 45.0208 21.3688 45.0208 26.2031Z" fill="#1ABCFE"/>
</g>
<defs>
<clipPath id="clip0_3_272">
<rect width="52" height="52" fill="white" transform="translate(0.333252)"/>
</clipPath>
</defs>
</svg>
