<svg width="52" height="52" viewBox="0 0 52 52" fill="none" xmlns="http://www.w3.org/2000/svg">
<path d="M7.73378 46.2621L3.66925 0.674782H48.3308L44.2618 46.2552L25.9728 51.3252L7.73378 46.2621Z" fill="#E44D26"/>
<path d="M26 47.45L40.7786 43.3526L44.2557 4.40212H26V47.45Z" fill="#F16529"/>
<path d="M26 21.3098H18.6014L18.0903 15.5842H26V9.99335H11.9799L12.114 11.4932L13.4879 26.9011H26V21.3098ZM26 35.8304L25.9752 35.8373L19.7486 34.1555L19.3509 29.6969H13.7378L14.521 38.4755L25.9744 41.6549L26 41.6479V35.8304Z" fill="#EBEBEB"/>
<path d="M25.9805 21.3098V26.9011H32.8652L32.2164 34.1522L25.9805 35.8353V41.6524L37.4428 38.4755L37.5269 37.531L38.8407 22.8113L38.9768 21.3098H37.4704H25.9805ZM25.9805 9.99335V15.5842H39.4858L39.598 14.328L39.8531 11.4932L39.9868 9.99335H25.9805Z" fill="white"/>
</svg>
