<svg width="72" height="72" viewBox="0 0 72 72" fill="none" xmlns="http://www.w3.org/2000/svg">
<path d="M62.505 20.22C61.905 20.61 61.05 20.97 60.69 21.375C60.555 21.51 60.48 21.66 60.51 21.81V23.355L60.06 24.87L59.61 26.37L59.115 28.02L58.095 31.395L57.105 34.725L56.355 37.23C56.355 37.62 56.34 38.01 56.31 38.385C56.205 39.825 55.905 41.205 55.425 42.495C55.14 43.29 54.795 44.055 54.375 44.775C54.225 45.06 54.045 45.345 53.865 45.615C53.265 46.56 52.545 47.43 51.75 48.195C51.135 48.81 50.46 49.38 49.725 49.86C49.725 49.86 49.725 49.86 49.71 49.86C49.59 49.965 49.455 50.055 49.305 50.13C48.84 50.445 48.345 50.715 47.835 50.955C47.49 51.135 47.145 51.285 46.785 51.42C46.71 51.465 46.62 51.495 46.545 51.525C45.69 51.93 44.7 52.2 43.71 52.335C43.65 52.35 43.605 52.35 43.545 52.365C42.945 52.47 42.36 52.56 41.76 52.605C41.49 52.635 41.205 52.65 40.935 52.65L39.87 52.59L34.74 52.32C34.74 52.305 34.725 52.32 34.725 52.32L32.145 52.185C31.95 52.185 31.74 52.185 31.545 52.17C30.735 52.14 29.955 52.05 29.175 51.885C29.16 51.885 29.16 51.885 29.16 51.885C27.735 51.615 26.37 51.135 25.095 50.49C24.39 50.13 23.7 49.725 23.055 49.26C22.785 49.065 22.53 48.855 22.275 48.63C21.555 48.03 20.91 47.385 20.31 46.725C20.22 46.635 20.145 46.545 20.07 46.455C19.98 46.365 19.89 46.26 19.815 46.17C19.245 45.45 18.765 44.715 18.375 43.935C18.015 43.245 17.73 42.51 17.505 41.7C17.415 41.415 17.34 41.145 17.28 40.845C17.265 40.83 17.25 40.8 17.25 40.77C17.1 40.155 16.965 39.51 16.89 38.865C16.8 38.37 16.755 37.875 16.755 37.365C16.725 37.17 16.725 36.96 16.725 36.765L19.59 32.34L22.395 28.02L23.67 26.055L24.825 24.285L25.215 23.67V22.125C25.245 21.78 25.26 21.42 25.245 21.09C25.23 20.04 25.02 19.02 24.675 18.045C24.345 17.01 23.88 16.035 23.4 15.135C22.83 14.1 22.23 13.17 21.735 12.33C21 11.1 20.49 10.095 20.625 9.39C21.705 9.135 22.845 9 24 9H48C54.27 9 59.67 12.9 61.905 18.39C62.145 18.975 62.355 19.59 62.505 20.22Z" fill="#304FFE"/>
<path d="M63 24V24.405L60.93 25.605L59.6101 26.37L58.1551 27.21L55.2451 28.905L52.3951 30.555L49.4851 32.235L48.3301 32.91C48.3301 33.63 48.15 34.29 47.82 34.89C47.355 35.76 46.5751 36.48 45.5851 37.095C44.5801 37.71 43.3501 38.205 41.9701 38.565C41.9701 38.565 41.97 38.55 41.955 38.565C36.615 39.945 29.3251 39.315 25.7851 36.675C24.7951 35.94 24.1051 35.04 23.8051 34.005C23.7151 33.66 23.6701 33.285 23.6701 32.91V22.125C23.6851 21.9 23.5351 21.675 23.2651 21.45C22.4551 20.805 20.5501 20.19 18.4201 19.575C16.7551 19.11 14.9701 18.645 13.4701 18.195C12.2851 17.835 11.2801 17.475 10.6801 17.13C10.9501 16.605 11.2651 16.08 11.5951 15.585C13.6951 12.51 16.9051 10.245 20.6251 9.39C21.7051 9.135 22.8451 9 24.0001 9H40.2001C48.2551 10.41 55.6801 13.695 61.9051 18.39C62.1451 18.975 62.355 19.59 62.505 20.22C62.775 21.21 62.9401 22.23 62.9851 23.295C63.0001 23.52 63 23.76 63 24Z" fill="#4928F4"/>
<path d="M63 24V30.615L62.67 31.635L61.545 35.13L60.375 38.73L59.76 40.65L59.19 42.435L58.635 44.13L58.095 45.81L57.81 46.695L57.435 47.865C57.435 49.005 57.405 50.01 57.33 50.865C57.315 50.955 57.3 51.045 57.3 51.135C57.21 51.93 57.09 52.605 56.895 53.175C56.88 53.265 56.85 53.355 56.82 53.43C56.43 54.51 55.845 55.2 54.975 55.65C54.765 55.77 54.525 55.86 54.27 55.95C53.475 56.22 52.47 56.355 51.24 56.43C50.34 56.49 49.305 56.505 48.135 56.505H47.1L45.315 56.43L45 56.415L41.745 56.28L38.445 56.145L27.57 55.695L24.75 55.575H24.36C23.19 55.56 22.185 55.485 21.315 55.365C20.055 55.17 19.08 54.84 18.345 54.345C17.295 53.67 16.68 52.68 16.32 51.3C16.23 50.97 16.155 50.625 16.11 50.25C15.96 49.38 15.885 48.375 15.84 47.25C15.84 47.025 15.84 46.8 15.825 46.56C15.81 46.545 15.825 46.545 15.825 46.545V45.675C15.81 45.24 15.81 44.79 15.81 44.325L15.885 41.91L15.93 40.185L15.99 38.175V37.89L16.095 34.2L16.2 30.51L16.305 27.045L16.395 23.64L16.425 22.74C16.425 22.275 14.85 22.005 13.095 21.78C11.7 21.6 10.17 21.435 9.255 21.225C9.33 20.88 9.405 20.535 9.495 20.205C9.765 19.125 10.17 18.105 10.68 17.13C10.95 16.605 11.265 16.08 11.595 15.585C14.835 14.16 18.21 13.05 21.735 12.33C24.825 11.685 28.05 11.34 31.38 11.34C42.42 11.34 52.62 15.075 60.69 21.375C61.47 21.975 62.235 22.62 62.985 23.295C63 23.52 63 23.76 63 24Z" fill="#6200EA"/>
<path d="M63 27.555V34.365L62.175 35.955L60.6 39.03L59.76 40.65L58.995 42.135L58.665 42.78C58.665 43.245 58.665 43.695 58.635 44.13C58.635 44.775 58.605 45.39 58.56 45.96C58.5 46.635 58.41 47.25 58.32 47.82C58.095 49.005 57.78 50.025 57.33 50.865C57.27 50.97 57.21 51.075 57.15 51.165C56.985 51.435 56.79 51.69 56.58 51.93C56.31 52.26 56.01 52.545 55.665 52.785C55.155 53.175 54.555 53.49 53.865 53.73C53.01 54.045 52.02 54.255 50.85 54.375C50.085 54.45 49.245 54.495 48.33 54.495L47.7 54.525L44.58 54.705H44.565L41.25 54.9L37.875 55.095L33.225 55.365L27.57 55.695L26.745 55.74C25.98 55.74 25.26 55.695 24.57 55.605C24.495 55.59 24.435 55.575 24.36 55.575C23.34 55.41 22.41 55.14 21.57 54.765C20.55 54.315 19.665 53.715 18.915 52.995C18.255 52.35 17.685 51.615 17.22 50.79C17.115 50.595 17.01 50.415 16.92 50.205C16.47 49.32 16.11 48.33 15.84 47.25C15.795 47.07 15.75 46.875 15.72 46.68C15.63 46.335 15.555 45.975 15.51 45.6C15.345 44.64 15.255 43.62 15.21 42.555V42.54C15.195 42.105 15.18 41.685 15.18 41.235L14.445 39.48L14.34 39.21L14.25 38.985L13.125 36.3L12.945 35.865L11.865 33.27L10.665 30.375C10.665 30.375 10.665 30.375 10.65 30.375L9.435 27.45L9 26.385V24C9 23.055 9.09 22.125 9.255 21.225C9.33 20.88 9.405 20.535 9.495 20.205C10.77 19.47 12.105 18.795 13.47 18.195C16.59 16.8 19.935 15.765 23.4 15.135C25.98 14.67 28.665 14.415 31.38 14.415C42.345 14.415 52.29 18.39 60.06 24.87C60.36 25.11 60.645 25.35 60.93 25.605C61.635 26.22 62.325 26.865 63 27.555Z" fill="#673AB7"/>
<path d="M63 32.025V39.735L62.145 41.52L60.525 44.895L60.51 44.94C60.51 45.585 60.48 46.17 60.435 46.695C60.285 48.42 59.865 49.515 59.175 50.19C58.68 50.7 58.065 50.985 57.3 51.135C57.255 51.15 57.195 51.15 57.15 51.165C56.91 51.21 56.655 51.24 56.385 51.24C55.455 51.33 54.36 51.27 53.1 51.18C52.965 51.18 52.815 51.165 52.665 51.15C51.75 51.09 50.775 51.03 49.695 50.985C49.11 50.97 48.495 50.955 47.865 50.955H47.835L46.32 51.075H46.305L42.9 51.315L39.015 51.615L38.445 51.66L33.9 51.99L31.545 52.17L29.22 52.335C28.815 52.335 28.425 52.335 28.035 52.32C28.035 52.32 28.02 52.305 28.02 52.32C26.325 52.29 24.81 52.185 23.46 51.93C22.215 51.72 21.12 51.39 20.19 50.895C19.23 50.43 18.435 49.77 17.79 48.93C17.175 48.105 16.725 47.07 16.44 45.825C16.44 45.81 16.44 45.81 16.44 45.81C16.23 44.805 16.11 43.635 16.11 42.315L15.885 41.91L14.55 39.525L14.355 39.195L14.25 38.985L12.855 36.51L12.165 35.265L11.295 33.72L9.795 31.035L9 29.625V24.105C10.32 23.235 11.685 22.47 13.095 21.78C14.805 20.91 16.575 20.175 18.42 19.575C20.43 18.915 22.53 18.39 24.675 18.045C26.85 17.685 29.085 17.505 31.38 17.505C41.58 17.505 50.94 21.15 58.155 27.21C58.485 27.465 58.8 27.75 59.115 28.02C60.375 29.145 61.575 30.36 62.67 31.635C62.79 31.77 62.91 31.89 63 32.025Z" fill="#8E24AA"/>
<path d="M63 37.065V47.91C62.64 47.7 62.145 47.445 61.53 47.175C61.2 47.01 60.825 46.845 60.435 46.695C59.865 46.44 59.25 46.2 58.56 45.96C58.41 45.9 58.26 45.855 58.095 45.81C57.825 45.705 57.54 45.615 57.255 45.525C56.37 45.255 55.395 45 54.375 44.775C53.985 44.7 53.58 44.625 53.175 44.565C51.87 44.34 50.475 44.205 49.02 44.19C48.9 44.175 48.765 44.175 48.645 44.175L44.79 44.205L39.54 44.235H39.525L28.29 44.325C24.72 44.325 22.53 45.18 21.21 45.525C21.21 45.525 21.195 45.525 21.195 45.54C19.8 45.9 19.365 45.675 19.245 43.23C19.215 42.555 19.2 41.685 19.2 40.62L18.36 39.975L16.89 38.865L15.99 38.175L15.81 38.04L13.32 36.15L12.945 35.865L12.165 35.265L10.725 34.185L9 32.865V27.765C9.15 27.645 9.285 27.54 9.435 27.45C11.61 25.95 13.935 24.675 16.395 23.64C18.585 22.71 20.895 21.975 23.265 21.45C23.91 21.315 24.57 21.18 25.245 21.09C27.24 20.745 29.295 20.58 31.38 20.58C40.395 20.58 48.675 23.715 55.245 28.905C56.235 29.685 57.195 30.51 58.095 31.395C59.325 32.565 60.48 33.81 61.545 35.13C61.755 35.4 61.965 35.67 62.175 35.955C62.46 36.315 62.73 36.69 63 37.065Z" fill="#C2185B"/>
<path d="M63 43.08V48C63 48.975 62.91 49.935 62.73 50.865C62.46 52.245 61.995 53.565 61.365 54.795C61.035 54.87 60.66 54.87 60.24 54.81C59.295 54.645 58.185 54.15 56.985 53.505C56.925 53.49 56.865 53.46 56.82 53.43C56.445 53.235 56.055 53.025 55.665 52.785C54.87 52.35 54.03 51.87 53.19 51.42C53.01 51.33 52.83 51.24 52.665 51.15C51.705 50.655 50.715 50.205 49.725 49.86C49.725 49.86 49.725 49.86 49.71 49.86C49.5 49.785 49.275 49.71 49.05 49.65C48.195 49.41 47.325 49.26 46.485 49.26L44.835 48.78L37.53 46.665C37.53 46.665 37.53 46.665 37.515 46.665L33.03 45.36H33.015L31.065 44.79C25.425 44.79 21.96 47.19 20.28 46.275C19.62 45.93 19.23 45.06 19.095 43.35C19.05 42.87 19.035 42.33 19.035 41.7L17.28 40.845L17.205 40.815H17.19L15.93 40.185L14.55 39.525L14.445 39.48L14.19 39.345L11.25 37.92L9 36.825V31.68C9.255 31.455 9.525 31.245 9.795 31.035C10.08 30.81 10.365 30.6 10.65 30.375C10.665 30.375 10.665 30.375 10.665 30.375C12.435 29.1 14.31 27.975 16.305 27.045C18.63 25.935 21.105 25.08 23.67 24.525C24.045 24.435 24.435 24.345 24.825 24.285C26.955 23.88 29.145 23.67 31.38 23.67C39.285 23.67 46.545 26.235 52.395 30.555C54.09 31.815 55.665 33.21 57.105 34.725C58.29 35.97 59.385 37.32 60.375 38.73C60.45 38.835 60.525 38.94 60.6 39.03C61.155 39.84 61.665 40.665 62.145 41.52C62.46 42.03 62.73 42.555 63 43.08Z" fill="#D81B60"/>
<path d="M62.73 50.865C62.46 52.245 61.995 53.565 61.365 54.795C61.08 55.35 60.765 55.875 60.42 56.385C60.21 56.7 59.985 57 59.76 57.285C59.22 57.075 58.425 56.775 57.45 56.445C57.45 56.445 57.45 56.445 57.45 56.43C56.715 56.175 55.875 55.905 54.975 55.65C54.72 55.575 54.465 55.5 54.195 55.425C53.13 55.14 52.02 54.885 50.94 54.735C50.04 54.585 49.155 54.495 48.33 54.495L47.64 54.3H47.625L43.995 53.25L41.76 52.605L39.27 51.885H39.255L38.445 51.66L28.65 48.84L25.83 48.03L23.73 47.535L20.31 46.725L19.89 46.62C19.89 46.62 19.89 46.62 19.875 46.62L16.44 45.825C16.44 45.81 16.44 45.81 16.44 45.81L15.825 45.675L15.51 45.6L13.005 45.015L12.72 44.94L10.59 43.185L9 41.85V35.73C9.555 35.19 10.125 34.68 10.725 34.185C10.905 34.02 11.1 33.87 11.295 33.72C11.475 33.57 11.67 33.42 11.865 33.27C13.23 32.235 14.67 31.305 16.2 30.51C18.15 29.46 20.22 28.62 22.395 28.02C22.815 27.885 23.235 27.765 23.67 27.675C26.13 27.06 28.71 26.745 31.38 26.745C38.085 26.745 44.325 28.77 49.485 32.235C52.05 33.96 54.36 36.03 56.31 38.385C57.3 39.57 58.2 40.815 58.995 42.135C59.07 42.24 59.13 42.33 59.19 42.435C59.67 43.23 60.12 44.055 60.525 44.895C60.9 45.645 61.23 46.395 61.53 47.175C62.01 48.375 62.4 49.605 62.73 50.865Z" fill="#F50057"/>
<path d="M60.42 56.385C60.21 56.7 59.985 57 59.76 57.285C59.1 58.11 58.38 58.86 57.57 59.52C56.865 60.105 56.115 60.63 55.32 61.08C55.02 61.005 54.72 60.915 54.405 60.795C53.415 60.45 52.38 59.88 51.42 59.28C49.98 58.365 48.735 57.375 48.18 56.925C47.97 56.745 47.865 56.655 47.865 56.655L45.315 56.43L45 56.4L41.7 56.115L38.28 55.815L33.225 55.365L25.215 54.66L25.185 54.645L22.365 53.28L19.515 51.9L17.22 50.79L16.725 50.55L16.11 50.25L13.98 49.215L11.145 47.85L10.26 47.415L9 47.025V40.32C9.705 39.48 10.455 38.685 11.25 37.92C11.76 37.44 12.3 36.96 12.855 36.51C12.945 36.435 13.035 36.36 13.125 36.3C13.185 36.225 13.26 36.18 13.32 36.15C14.205 35.43 15.135 34.785 16.095 34.2C17.205 33.495 18.375 32.865 19.59 32.34C20.895 31.755 22.26 31.26 23.67 30.885C26.115 30.195 28.71 29.835 31.38 29.835C37.5 29.835 43.155 31.695 47.82 34.89C50.805 36.93 53.385 39.51 55.425 42.495C56.1 43.455 56.7 44.475 57.255 45.525C57.45 45.915 57.645 46.305 57.81 46.695C57.99 47.07 58.155 47.445 58.32 47.82C58.635 48.6 58.92 49.38 59.175 50.19C59.655 51.69 60.015 53.22 60.24 54.81C60.315 55.335 60.375 55.86 60.42 56.385Z" fill="#FF1744"/>
<path d="M57.585 59.13C57.585 59.25 57.585 59.385 57.57 59.52C56.865 60.105 56.115 60.63 55.32 61.08C54.99 61.26 54.66 61.44 54.315 61.59C53.97 61.755 53.625 61.905 53.265 62.04C52.755 61.77 52.065 61.44 51.33 61.125C50.295 60.66 49.17 60.24 48.3 60.105C48.09 60.06 47.895 60.045 47.715 60.045L45.255 59.73H45.225L42.165 59.325L39.075 58.92L37.635 58.74L26.295 57.27C25.56 57.27 24.78 57.225 23.97 57.12C22.98 57.03 21.945 56.88 20.91 56.67C19.89 56.49 18.855 56.25 17.865 55.995C16.83 55.755 15.81 55.47 14.865 55.2C13.77 54.87 12.75 54.555 11.895 54.27C11.19 54.045 10.59 53.835 10.125 53.67C9.855 53.025 9.63 52.35 9.465 51.66C9.15 50.49 9 49.26 9 48V45.495C9.48 44.7 10.005 43.92 10.59 43.185C11.655 41.775 12.87 40.485 14.19 39.345C14.235 39.285 14.295 39.24 14.34 39.21L14.355 39.195C14.82 38.775 15.3 38.4 15.81 38.04C15.87 37.98 15.93 37.935 15.99 37.89C16.23 37.71 16.485 37.53 16.755 37.365C18.9 35.91 21.27 34.77 23.805 34.005C26.205 33.285 28.74 32.91 31.38 32.91C36.615 32.91 41.505 34.455 45.585 37.095C48.6 39.03 51.195 41.58 53.175 44.565C53.415 44.91 53.64 45.255 53.865 45.615C54.9 47.37 55.755 49.26 56.385 51.24C56.46 51.465 56.52 51.69 56.58 51.93C56.7 52.335 56.805 52.755 56.895 53.175C56.925 53.28 56.955 53.385 56.985 53.505C57.195 54.45 57.345 55.44 57.45 56.43C57.45 56.445 57.45 56.445 57.45 56.445C57.54 57.33 57.585 58.23 57.585 59.13Z" fill="#FF5722"/>
<path d="M54.495 59.13C54.495 59.655 54.465 60.225 54.405 60.795C54.375 61.065 54.345 61.335 54.315 61.59C53.97 61.755 53.625 61.905 53.265 62.04C52.59 62.295 51.9 62.505 51.195 62.655C50.715 62.76 50.22 62.85 49.725 62.895H49.71C49.245 62.61 48.705 62.265 48.15 61.875C47.145 61.17 46.095 60.375 45.255 59.73C45.24 59.715 45.24 59.715 45.225 59.7C44.34 59.025 43.71 58.515 43.71 58.515L42.12 58.575L39.06 58.68L37.635 58.74L31.905 58.95L27.06 59.13C26.745 59.145 26.37 59.145 25.905 59.13H25.89C25.26 59.115 24.51 59.07 23.685 58.995C22.725 58.92 21.675 58.83 20.61 58.725C19.575 58.605 18.525 58.485 17.52 58.365C16.41 58.245 15.36 58.11 14.46 57.99C13.755 57.9 13.14 57.825 12.645 57.765C12.225 57.285 11.85 56.79 11.49 56.25C10.95 55.44 10.485 54.585 10.125 53.67C9.85497 53.025 9.62997 52.35 9.46497 51.66C9.89997 50.325 10.47 49.065 11.145 47.85C11.685 46.86 12.315 45.915 13.005 45.015C13.68 44.13 14.415 43.305 15.21 42.555V42.54C15.435 42.315 15.66 42.105 15.885 41.91C16.305 41.52 16.74 41.16 17.19 40.815H17.205C17.22 40.785 17.235 40.785 17.25 40.77C17.61 40.485 17.985 40.23 18.36 39.975C20.58 38.46 23.085 37.335 25.785 36.675C27.57 36.24 29.445 36 31.38 36C35.19 36 38.79 36.915 41.955 38.565H41.97C44.685 39.96 47.085 41.88 49.02 44.19C50.085 45.42 51 46.77 51.75 48.195C52.275 49.155 52.725 50.16 53.1 51.18C53.13 51.27 53.16 51.345 53.19 51.42C53.445 52.17 53.67 52.95 53.865 53.73C54 54.285 54.105 54.855 54.195 55.425C54.225 55.605 54.255 55.77 54.27 55.95C54.42 56.985 54.495 58.05 54.495 59.13Z" fill="#FF6F00"/>
<path d="M51.42 59.13V59.28C51.42 59.79 51.375 60.435 51.33 61.125C51.285 61.635 51.24 62.16 51.195 62.655C50.715 62.76 50.22 62.85 49.725 62.895H49.71C49.14 62.97 48.585 63 48 63H45.375L44.805 62.835L41.85 61.935L38.85 61.035L31.905 58.95L28.905 58.05C28.905 58.05 27.66 58.545 25.905 59.13H25.89C25.215 59.355 24.48 59.595 23.7 59.835C22.725 60.12 21.69 60.405 20.67 60.63C19.62 60.87 18.585 61.05 17.655 61.125C17.37 61.155 17.085 61.17 16.83 61.17C15.99 60.705 15.18 60.15 14.445 59.535C13.8 58.995 13.2 58.41 12.645 57.765C12.225 57.285 11.85 56.79 11.49 56.25C11.595 55.575 11.715 54.915 11.895 54.27C12.345 52.485 13.05 50.775 13.98 49.215C14.49 48.33 15.06 47.475 15.72 46.68C15.735 46.635 15.78 46.59 15.825 46.56C15.81 46.545 15.825 46.545 15.825 46.545C16.02 46.29 16.23 46.05 16.44 45.825C16.44 45.81 16.44 45.81 16.44 45.81C17.055 45.15 17.685 44.52 18.375 43.935C18.615 43.74 18.84 43.545 19.095 43.35C19.14 43.305 19.185 43.275 19.245 43.23C22.62 40.65 26.835 39.09 31.38 39.09C36.54 39.09 41.235 41.025 44.79 44.205C46.5 45.75 47.955 47.595 49.05 49.65C49.14 49.8 49.23 49.965 49.305 50.13C49.44 50.4 49.575 50.685 49.695 50.985C50.19 52.065 50.58 53.205 50.85 54.375C50.88 54.495 50.91 54.615 50.94 54.735C51.06 55.29 51.165 55.86 51.24 56.43C51.36 57.315 51.42 58.215 51.42 59.13Z" fill="#FF9800"/>
<path d="M48.33 59.13C48.33 59.43 48.315 59.76 48.3 60.105C48.27 60.66 48.225 61.26 48.15 61.875C48.12 62.25 48.06 62.625 48 63H39.78L38.19 62.745L31.98 61.755L31.095 61.62L29.07 61.29C28.185 61.29 26.265 61.68 24.24 62.055C23.175 62.25 22.095 62.46 21.12 62.595C21 62.61 20.88 62.625 20.775 62.64H20.76C19.71 62.415 18.69 62.07 17.73 61.62C17.43 61.485 17.13 61.335 16.83 61.17C15.99 60.705 15.18 60.15 14.445 59.535C14.43 59.355 14.415 59.205 14.415 59.13C14.415 58.74 14.43 58.365 14.46 57.99C14.52 57.03 14.655 56.1 14.865 55.2C15.195 53.835 15.675 52.515 16.32 51.3C16.44 51.045 16.575 50.79 16.725 50.55C16.785 50.43 16.86 50.325 16.92 50.205C17.19 49.77 17.49 49.35 17.79 48.93C18.42 48.105 19.125 47.325 19.875 46.62C19.89 46.62 19.89 46.62 19.89 46.62C19.95 46.56 20.01 46.5 20.07 46.455C20.145 46.395 20.205 46.32 20.28 46.275C20.58 46.005 20.88 45.765 21.195 45.54C21.195 45.525 21.21 45.525 21.21 45.525C24.045 43.41 27.555 42.165 31.38 42.165C34.35 42.165 37.11 42.915 39.525 44.235H39.54C41.61 45.375 43.41 46.92 44.835 48.78C45.39 49.5 45.885 50.265 46.305 51.075H46.32C46.395 51.225 46.47 51.375 46.545 51.525C46.995 52.41 47.355 53.34 47.625 54.3H47.64C47.655 54.375 47.685 54.45 47.7 54.525C47.88 55.17 48.03 55.83 48.135 56.505C48.15 56.64 48.165 56.79 48.18 56.925C48.285 57.645 48.33 58.38 48.33 59.13Z" fill="#FFC107"/>
<path d="M45.255 58.965C45.255 59.205 45.255 59.46 45.225 59.7V59.715C45.225 59.73 45.225 59.73 45.225 59.73C45.195 60.81 45.045 61.875 44.805 62.835C44.805 62.895 44.79 62.94 44.76 63H37.755L31.98 61.755L31.215 61.59L31.095 61.62L24.69 62.94L24.405 63H24C23.04 63 22.095 62.91 21.18 62.73C21.045 62.7 20.91 62.67 20.775 62.64H20.76C19.71 62.415 18.69 62.07 17.73 61.62C17.7 61.455 17.67 61.29 17.655 61.125C17.55 60.48 17.505 59.805 17.505 59.13C17.505 58.875 17.505 58.62 17.52 58.365C17.565 57.555 17.685 56.76 17.865 55.995C17.985 55.425 18.15 54.87 18.345 54.345C18.51 53.88 18.705 53.43 18.915 52.995C19.095 52.62 19.305 52.26 19.515 51.9C19.725 51.555 19.95 51.225 20.19 50.895C20.79 50.07 21.495 49.305 22.275 48.63C22.725 48.24 23.22 47.865 23.73 47.535C25.92 46.095 28.545 45.255 31.38 45.255C31.935 45.255 32.475 45.285 33 45.36H33.03C34.635 45.54 36.135 45.99 37.515 46.665C37.53 46.665 37.53 46.665 37.53 46.665C39.705 47.73 41.55 49.335 42.9 51.315C43.125 51.645 43.35 52.005 43.545 52.365C43.71 52.65 43.86 52.95 43.995 53.25C44.205 53.715 44.4 54.21 44.565 54.705H44.58C44.745 55.26 44.895 55.815 45 56.4V56.415C45.165 57.24 45.255 58.095 45.255 58.965Z" fill="#FFD54F"/>
<path d="M42.165 59.28V59.325C42.165 60.21 42.06 61.08 41.85 61.935C41.775 62.295 41.67 62.655 41.535 63H34.815L31.38 62.055L27.945 63H24C23.04 63 22.095 62.91 21.18 62.73C21.15 62.685 21.135 62.64 21.12 62.595C20.91 61.95 20.745 61.305 20.67 60.63C20.61 60.195 20.58 59.745 20.58 59.28C20.58 59.1 20.58 58.905 20.61 58.725C20.625 58.02 20.73 57.33 20.91 56.67C21 56.22 21.135 55.785 21.315 55.365C21.375 55.155 21.465 54.96 21.57 54.765C21.795 54.255 22.065 53.76 22.365 53.28C22.695 52.8 23.055 52.35 23.46 51.93C23.94 51.39 24.48 50.895 25.095 50.49C26.145 49.725 27.345 49.155 28.65 48.84C29.52 48.6 30.435 48.48 31.38 48.48C34.38 48.48 37.065 49.68 39.015 51.615C39.09 51.69 39.18 51.78 39.255 51.885H39.27C39.48 52.11 39.675 52.335 39.87 52.59C40.425 53.295 40.89 54.06 41.25 54.9C41.43 55.29 41.58 55.695 41.7 56.115C41.715 56.175 41.73 56.22 41.745 56.28C41.955 57.015 42.09 57.78 42.12 58.575C42.15 58.8 42.165 59.04 42.165 59.28Z" fill="#FFE082"/>
<path d="M39.09 59.28C39.09 59.895 39.015 60.48 38.85 61.035C38.7 61.635 38.475 62.205 38.19 62.745C38.145 62.835 38.04 63 38.04 63H24.72C24.705 62.985 24.69 62.955 24.69 62.94C24.51 62.655 24.36 62.37 24.24 62.055C23.94 61.365 23.76 60.615 23.7 59.835C23.67 59.655 23.67 59.46 23.67 59.28C23.67 59.19 23.67 59.085 23.685 58.995C23.7 58.335 23.79 57.705 23.97 57.12C24.12 56.58 24.315 56.085 24.57 55.605C24.57 55.605 24.585 55.59 24.585 55.575C24.765 55.26 24.96 54.945 25.185 54.645C25.92 53.655 26.895 52.845 28.02 52.32C28.035 52.32 28.035 52.32 28.035 52.32C28.395 52.14 28.77 51.99 29.16 51.885C29.16 51.885 29.16 51.885 29.175 51.885C29.865 51.675 30.615 51.57 31.38 51.57C32.265 51.57 33.12 51.705 33.9 51.99C34.185 52.065 34.455 52.185 34.725 52.32C34.725 52.32 34.725 52.32 34.74 52.32C36.03 52.935 37.125 53.895 37.875 55.095C38.025 55.32 38.16 55.56 38.28 55.815C38.34 55.92 38.4 56.04 38.445 56.145C38.79 56.925 39 57.78 39.06 58.68C39.075 58.755 39.075 58.83 39.075 58.92C39.09 59.04 39.09 59.16 39.09 59.28Z" fill="#FFECB3"/>
<path d="M45 16.5H27C21.15 16.5 16.5 21.15 16.5 27V45C16.5 50.85 21.15 55.5 27 55.5H45C50.85 55.5 55.5 50.85 55.5 45V27C55.5 21.15 50.85 16.5 45 16.5Z" stroke="white" stroke-width="4.16667" stroke-miterlimit="10" stroke-linecap="round" stroke-linejoin="round"/>
<path d="M46.5 25.5C47.3284 25.5 48 24.8284 48 24C48 23.1716 47.3284 22.5 46.5 22.5C45.6716 22.5 45 23.1716 45 24C45 24.8284 45.6716 25.5 46.5 25.5Z" fill="white"/>
<path d="M36 45C40.9706 45 45 40.9706 45 36C45 31.0294 40.9706 27 36 27C31.0294 27 27 31.0294 27 36C27 40.9706 31.0294 45 36 45Z" stroke="white" stroke-width="4.16667" stroke-miterlimit="10" stroke-linecap="round" stroke-linejoin="round"/>
</svg>
