<svg width="53" height="52" viewBox="0 0 53 52" fill="none" xmlns="http://www.w3.org/2000/svg">
<g clip-path="url(#clip0_3_294)">
<path d="M0.905396 0.571999H51.7614V51.4284H0.905396V0.571999Z" fill="#F0DB4F"/>
<path d="M47.5994 39.299C47.2268 36.9789 45.714 35.0301 41.2326 33.213C39.6759 32.4976 37.9404 31.9853 37.4232 30.8055C37.2396 30.119 37.2152 29.7322 37.3314 29.3166C37.6649 27.9679 39.2749 27.5474 40.5509 27.9342C41.3728 28.2096 42.1508 28.8429 42.62 29.8533C44.8145 28.4322 44.8101 28.4416 46.3424 27.4649C45.7814 26.5952 45.482 26.1938 45.1148 25.8217C43.7948 24.3474 41.9964 23.5881 39.1201 23.6462L37.6219 23.84C36.1862 24.2027 34.8179 24.9563 34.0156 25.9667C31.6082 28.6983 32.2947 33.4791 35.2242 35.4465C38.1102 37.6126 42.3498 38.1054 42.8913 40.131C43.4182 42.6107 41.0689 43.4135 38.7338 43.1283C37.0129 42.7704 36.0558 41.8957 35.0211 40.3053C33.1166 41.4074 33.1166 41.4074 31.1584 42.5336C31.6228 43.5488 32.1107 44.0082 32.8891 44.8878C36.5729 48.6245 45.7916 48.4408 47.445 42.785C47.512 42.5908 47.9573 41.2957 47.5994 39.299ZM28.5523 23.9456H23.7956L23.7761 36.2436C23.7761 38.859 23.9113 41.2567 23.486 41.9916C22.7901 43.437 20.9868 43.2579 20.1649 42.9776C19.3284 42.5665 18.9031 41.9819 18.4103 41.1556C18.275 40.9183 18.1735 40.7347 18.1393 40.7205L14.2719 43.0889C14.9149 44.4088 15.8623 45.5544 17.0758 46.2987C18.8885 47.3866 21.3248 47.7201 23.8728 47.1351C25.5311 46.6521 26.9619 45.6515 27.711 44.1285C28.7941 42.1318 28.5617 39.715 28.5519 37.0419C28.5763 32.6808 28.5523 28.3205 28.5523 23.9456Z" fill="#323330"/>
</g>
<defs>
<clipPath id="clip0_3_294">
<rect width="52" height="52" fill="white" transform="translate(0.333374)"/>
</clipPath>
</defs>
</svg>
