<svg width="72" height="72" viewBox="0 0 72 72" fill="none" xmlns="http://www.w3.org/2000/svg">
<path d="M63 55.5C63 59.643 59.643 63 55.5 63H16.5C12.3585 63 9 59.643 9 55.5V16.5C9 12.357 12.3585 9 16.5 9H55.5C59.643 9 63 12.357 63 16.5V55.5Z" fill="#0288D1"/>
<path d="M18 28.5H25.5V54H18V28.5ZM21.7275 25.5H21.6855C19.4475 25.5 18 23.832 18 21.7485C18 19.62 19.4925 18 21.771 18C24.0525 18 25.458 19.62 25.5 21.7485C25.5 23.8305 24.0525 25.5 21.7275 25.5ZM54 54H46.5V40.3515C46.5 37.0545 44.6625 34.8045 41.712 34.8045C39.4605 34.8045 38.2425 36.3225 37.6515 37.7895C37.4355 38.3145 37.5 39.7665 37.5 40.5V54H30V28.5H37.5V32.424C38.5815 30.75 40.275 28.5 44.607 28.5C49.974 28.5 53.9985 31.875 53.9985 39.411L54 54Z" fill="white"/>
</svg>
