<svg width="53" height="52" viewBox="0 0 53 52" fill="none" xmlns="http://www.w3.org/2000/svg">
<path d="M46.4798 12.3232L28.5654 1.92116C27.4357 1.27765 25.9646 1.27765 24.8259 1.92116L6.72016 12.3232C5.55422 12.9939 4.72913 14.2545 4.72913 15.6028V36.3793C4.72913 37.7276 5.57575 38.9886 6.74169 39.663L11.5253 42.38C13.8117 43.5061 14.6197 43.5061 15.6601 43.5061C19.0454 43.5061 20.9791 41.459 20.9791 37.8885V17.3769C20.9791 17.0873 20.8284 16.6563 20.544 16.6563H18.2597C17.9704 16.6563 17.3229 17.0873 17.3229 17.3765V37.8881C17.3229 39.4709 15.8913 41.0459 13.2157 39.7081L8.27284 36.8591C8.10059 36.7656 7.97913 36.5775 7.97913 36.3793V15.6028C7.97913 15.407 8.20459 15.2104 8.37806 15.1101L26.4253 4.72591C26.5939 4.63044 26.8417 4.63044 27.0099 4.72591L44.837 15.1076C45.0076 15.2104 44.9475 15.4009 44.9475 15.6028V36.3793C44.9475 36.5775 45.0218 36.7705 44.8532 36.866L26.9433 47.2562C26.7897 47.3485 26.5992 47.3485 26.431 47.2562L21.8375 44.5145C21.699 44.434 21.5345 44.4052 21.4016 44.4795C20.1236 45.2039 19.8879 45.3001 18.6891 45.7157C18.3942 45.8185 17.9591 45.9969 18.8557 46.4994L24.8673 50.0557C25.4413 50.3872 26.0924 50.5618 26.7552 50.5619C27.4223 50.5619 28.0755 50.3888 28.6512 50.0557L46.4794 39.663C47.6454 38.9838 48.1979 37.7276 48.1979 36.3793V15.6028C48.1979 14.2545 47.6454 12.9972 46.4798 12.3232ZM32.3176 33.087C27.5539 33.087 26.5045 31.7728 26.1548 29.404C26.1141 29.1489 25.8976 28.8438 25.638 28.8438H23.3098C23.0218 28.8438 22.7902 29.1931 22.7902 29.4799C22.7902 32.513 24.4392 36.188 32.318 36.188C38.0213 36.188 41.2912 33.9719 41.2912 30.0499C41.2912 26.1613 38.664 25.1408 33.1329 24.4087C27.5421 23.6698 26.9742 23.2964 26.9742 21.9867C26.9742 20.9068 27.4552 19.4667 31.5948 19.4667C35.2937 19.4667 36.6571 20.2605 37.2182 22.7537C37.2661 22.9881 37.4802 23.1563 37.7219 23.1563H40.0595C40.2033 23.1563 40.3406 23.0982 40.4413 22.9954C40.5388 22.8849 40.5904 22.7463 40.5774 22.5977C40.2155 18.3044 37.3632 16.3036 31.5944 16.3036C26.4631 16.3036 23.402 18.4706 23.402 22.1028C23.402 26.0427 26.4477 27.1314 31.3734 27.6185C37.2661 28.1962 37.7243 29.0574 37.7243 30.2165C37.7243 32.2294 36.1083 33.087 32.3176 33.087Z" fill="#83CD29"/>
</svg>
