<svg width="52" height="52" viewBox="0 0 52 52" fill="none" xmlns="http://www.w3.org/2000/svg">
<path d="M26 30.6312C28.5578 30.6312 30.6313 28.5578 30.6313 26C30.6313 23.4422 28.5578 21.3688 26 21.3688C23.4423 21.3688 21.3688 23.4422 21.3688 26C21.3688 28.5578 23.4423 30.6312 26 30.6312Z" fill="#61DAFB"/>
<path d="M43.5906 18.3625C42.6968 18.0375 41.7625 17.7125 40.7875 17.4281C41.0312 16.4531 41.2343 15.4781 41.3968 14.5438C42.25 9.18125 41.3156 5.40313 38.7156 3.94063C37.9437 3.49375 37.0906 3.29063 36.1156 3.29063C33.2718 3.29063 29.6562 5.40313 26 8.9375C22.3437 5.40313 18.7281 3.29063 15.8843 3.29063C14.9093 3.29063 14.0562 3.49375 13.2843 3.94063C10.6843 5.44375 9.74997 9.22188 10.6031 14.5438C10.7656 15.4781 10.9687 16.4531 11.2125 17.4281C10.2375 17.7125 9.3031 17.9969 8.40935 18.3625C3.33122 20.3125 0.568726 22.9938 0.568726 26C0.568726 29.0063 3.37185 31.6875 8.40935 33.6375C9.3031 33.9625 10.2375 34.2875 11.2125 34.5719C10.9687 35.5469 10.7656 36.5219 10.6031 37.4563C9.74997 42.8188 10.6843 46.5969 13.2843 48.0594C14.0562 48.5063 14.9093 48.7094 15.8843 48.7094C18.7687 48.7094 22.3843 46.5969 26 43.0625C29.6562 46.5969 33.2718 48.7094 36.1156 48.7094C37.0906 48.7094 37.9437 48.5063 38.7156 48.0594C41.3156 46.5563 42.25 42.7781 41.3968 37.4563C41.2343 36.5219 41.0312 35.5469 40.7875 34.5719C41.7625 34.2875 42.6968 34.0031 43.5906 33.6375C48.6687 31.6875 51.4312 29.0063 51.4312 26C51.4312 22.9938 48.6687 20.3125 43.5906 18.3625ZM37.5781 5.97188C39.2437 6.94688 39.8125 9.95313 39.1218 14.2188C39 15.0719 38.7968 15.9656 38.5531 16.9C36.4406 16.4125 34.2062 16.0875 31.85 15.8844C30.4687 13.9344 29.0468 12.1875 27.625 10.6031C30.6312 7.6375 33.6781 5.60625 36.1562 5.60625C36.6843 5.60625 37.1718 5.72813 37.5781 5.97188ZM33.0281 30.0625C32.2968 31.3625 31.4437 32.6625 30.55 33.9625C29.0468 34.0844 27.5437 34.125 26 34.125C24.4156 34.125 22.9125 34.0844 21.45 33.9625C20.5562 32.6625 19.7437 31.3625 19.0125 30.0625C18.2406 28.7219 17.5093 27.3406 16.8593 26C17.5093 24.6594 18.2406 23.2781 19.0125 21.9375C19.7437 20.6375 20.5968 19.3375 21.4906 18.0375C22.9937 17.9156 24.4968 17.875 26.0406 17.875C27.625 17.875 29.1281 17.9156 30.5906 18.0375C31.4843 19.3375 32.2968 20.6375 33.0281 21.9375C33.8 23.2781 34.5312 24.6594 35.1812 26C34.4906 27.3406 33.8 28.6813 33.0281 30.0625ZM36.4 28.7219C37.0093 30.1438 37.4968 31.525 37.9437 32.9063C36.5625 33.2313 35.1 33.475 33.5562 33.6781C34.0437 32.9063 34.5718 32.0938 35.0187 31.2406C35.5062 30.3875 35.9531 29.5344 36.4 28.7219ZM26 39.7313C25.025 38.675 24.0906 37.5375 23.1968 36.3594C24.1312 36.4 25.0656 36.4406 26 36.4406C26.9343 36.4406 27.8687 36.4 28.8031 36.3594C27.9093 37.5375 26.975 38.675 26 39.7313ZM18.4437 33.6375C16.9 33.4344 15.4375 33.1906 14.0562 32.8656C14.5031 31.525 14.9906 30.1031 15.6 28.6813C16.0468 29.4938 16.4937 30.3469 16.9812 31.1594C17.4687 32.0531 17.9562 32.825 18.4437 33.6375ZM15.6 23.2781C14.9906 21.8563 14.5031 20.475 14.0562 19.0938C15.4375 18.7688 16.9 18.525 18.4437 18.3219C17.9562 19.0938 17.4281 19.9063 16.9812 20.7594C16.4937 21.6125 16.0468 22.4656 15.6 23.2781ZM26 12.2688C26.975 13.325 27.9093 14.4625 28.8031 15.6406C27.8687 15.6 26.9343 15.5594 26 15.5594C25.0656 15.5594 24.1312 15.6 23.1968 15.6406C24.0906 14.4625 25.025 13.325 26 12.2688ZM35.0187 20.8L33.5562 18.3625C35.1 18.5656 36.5625 18.8094 37.9437 19.1344C37.4968 20.475 37.0093 21.8969 36.4 23.3188C35.9531 22.4656 35.5062 21.6125 35.0187 20.8ZM12.8781 14.2188C12.1875 9.95313 12.7562 6.94688 14.4218 5.97188C14.8281 5.72813 15.3156 5.60625 15.8437 5.60625C18.2812 5.60625 21.3281 7.59688 24.375 10.6031C22.9531 12.1469 21.5312 13.9344 20.15 15.8844C17.7937 16.0875 15.5593 16.4531 13.4468 16.9C13.2031 15.9656 13.0406 15.0719 12.8781 14.2188ZM2.84372 26C2.84372 24.0906 5.15935 22.0594 9.22185 20.5563C10.0343 20.2313 10.9281 19.9469 11.8218 19.7031C12.4718 21.7344 13.2843 23.8875 14.2593 26.0406C13.2843 28.1938 12.4312 30.3063 11.8218 32.3375C6.2156 30.7125 2.84372 28.275 2.84372 26ZM14.4218 46.0281C12.7562 45.0531 12.1875 42.0469 12.8781 37.7813C13 36.9281 13.2031 36.0344 13.4468 35.1C15.5593 35.5875 17.7937 35.9125 20.15 36.1156C21.5312 38.0656 22.9531 39.8125 24.375 41.3969C21.3687 44.3625 18.3218 46.3938 15.8437 46.3938C15.3156 46.3938 14.8281 46.2719 14.4218 46.0281ZM39.1218 37.7813C39.8125 42.0469 39.2437 45.0531 37.5781 46.0281C37.1718 46.2719 36.6843 46.3938 36.1562 46.3938C33.7187 46.3938 30.6718 44.4031 27.625 41.3969C29.0468 39.8531 30.4687 38.0656 31.85 36.1156C34.2062 35.9125 36.4406 35.5469 38.5531 35.1C38.7968 36.0344 38.9593 36.9281 39.1218 37.7813ZM42.7781 31.4438C41.9656 31.7688 41.0718 32.0531 40.1781 32.2969C39.5281 30.2656 38.7156 28.1125 37.7406 25.9594C38.7156 23.8063 39.5687 21.6938 40.1781 19.6625C45.7843 21.2875 49.1562 23.725 49.1562 26C49.1562 27.9094 46.8 29.9406 42.7781 31.4438Z" fill="#61DAFB"/>
</svg>
