<svg width="24" height="24" viewBox="0 0 24 24" fill="none" xmlns="http://www.w3.org/2000/svg">
<path d="M21.375 5.99998C21.375 5.38123 21.2049 4.77439 20.8834 4.24577C20.5618 3.71716 20.1011 3.28712 19.5516 3.00267C19.0021 2.71821 18.385 2.59029 17.7677 2.63288C17.1504 2.67548 16.5567 2.88694 16.0515 3.24417C15.5463 3.6014 15.149 4.09064 14.9031 4.65841C14.6571 5.22619 14.572 5.85065 14.657 6.46353C14.742 7.07641 14.9939 7.65413 15.385 8.13355C15.7762 8.61296 16.2916 8.97561 16.875 9.18186V9.74998C16.875 10.0484 16.7565 10.3345 16.5455 10.5455C16.3345 10.7565 16.0484 10.875 15.75 10.875H9.00001C8.61674 10.8748 8.23627 10.9401 7.87501 11.0681V9.18186C8.62562 8.91648 9.25826 8.39428 9.66109 7.70757C10.0639 7.02086 10.211 6.21384 10.0764 5.42916C9.94177 4.64448 9.53408 3.93265 8.92537 3.41949C8.31667 2.90633 7.54615 2.62488 6.75001 2.62488C5.95386 2.62488 5.18334 2.90633 4.57464 3.41949C3.96594 3.93265 3.55824 4.64448 3.42361 5.42916C3.28898 6.21384 3.43608 7.02086 3.83892 7.70757C4.24176 8.39428 4.87439 8.91648 5.62501 9.18186V14.8181C4.87439 15.0835 4.24176 15.6057 3.83892 16.2924C3.43608 16.9791 3.28898 17.7861 3.42361 18.5708C3.55824 19.3555 3.96594 20.0673 4.57464 20.5805C5.18334 21.0936 5.95386 21.3751 6.75001 21.3751C7.54615 21.3751 8.31667 21.0936 8.92537 20.5805C9.53408 20.0673 9.94177 19.3555 10.0764 18.5708C10.211 17.7861 10.0639 16.9791 9.66109 16.2924C9.25826 15.6057 8.62562 15.0835 7.87501 14.8181V14.25C7.87501 13.9516 7.99353 13.6655 8.20451 13.4545C8.41549 13.2435 8.70164 13.125 9.00001 13.125H15.75C16.6451 13.125 17.5036 12.7694 18.1365 12.1365C18.7694 11.5035 19.125 10.6451 19.125 9.74998V9.18186C19.7825 8.9484 20.3516 8.51728 20.7545 7.94763C21.1573 7.37798 21.374 6.69767 21.375 5.99998ZM6.75001 4.87498C6.97251 4.87498 7.19002 4.94096 7.37502 5.06458C7.56003 5.1882 7.70422 5.3639 7.78937 5.56947C7.87452 5.77503 7.8968 6.00123 7.85339 6.21946C7.80998 6.43769 7.70284 6.63815 7.5455 6.79548C7.38817 6.95281 7.18771 7.05996 6.96948 7.10337C6.75126 7.14678 6.52505 7.1245 6.31949 7.03935C6.11392 6.9542 5.93822 6.81001 5.8146 6.625C5.69099 6.44 5.62501 6.22249 5.62501 5.99998C5.62501 5.70162 5.74353 5.41547 5.95451 5.20449C6.16549 4.99351 6.45164 4.87498 6.75001 4.87498ZM6.75001 19.125C6.5275 19.125 6.31 19.059 6.12499 18.9354C5.93999 18.8118 5.79579 18.6361 5.71064 18.4305C5.62549 18.2249 5.60321 17.9987 5.64662 17.7805C5.69003 17.5623 5.79718 17.3618 5.95451 17.2045C6.11185 17.0472 6.3123 16.94 6.53053 16.8966C6.74876 16.8532 6.97496 16.8755 7.18053 16.9606C7.38609 17.0458 7.56179 17.19 7.68541 17.375C7.80903 17.56 7.87501 17.7775 7.87501 18C7.87501 18.2984 7.75648 18.5845 7.5455 18.7955C7.33452 19.0065 7.04838 19.125 6.75001 19.125ZM18 7.12498C17.7775 7.12498 17.56 7.059 17.375 6.93539C17.19 6.81177 17.0458 6.63607 16.9606 6.4305C16.8755 6.22494 16.8532 5.99874 16.8966 5.78051C16.94 5.56228 17.0472 5.36182 17.2045 5.20449C17.3618 5.04716 17.5623 4.94001 17.7805 4.8966C17.9988 4.85319 18.225 4.87547 18.4305 4.96062C18.6361 5.04577 18.8118 5.18996 18.9354 5.37497C19.059 5.55997 19.125 5.77748 19.125 5.99998C19.125 6.29835 19.0065 6.5845 18.7955 6.79548C18.5845 7.00646 18.2984 7.12498 18 7.12498Z" fill="#F5FBF2"/>
</svg>
