<svg width="52" height="52" viewBox="0 0 52 52" fill="none" xmlns="http://www.w3.org/2000/svg">
<path d="M1.48527 18.2987C1.48527 18.2987 0.255555 17.4086 1.73309 16.2216L5.17321 13.1365C5.17321 13.1365 6.15877 12.0969 7.19999 13.0032L38.9586 37.1052V48.6631C38.9586 48.6631 38.9427 50.4782 36.6198 50.2783L1.48527 18.2987Z" fill="#2489CA"/>
<path d="M9.67235 25.7477L1.4852 33.2077C1.4852 33.2077 0.644263 33.8345 1.4852 34.9566L5.28607 38.4207C5.28607 38.4207 6.18876 39.3937 7.5237 38.2874L16.2008 31.6908L9.67235 25.7477Z" fill="#1070B3"/>
<path d="M24.0435 25.8095L39.0556 14.3187L38.9585 2.82303C38.9585 2.82303 38.3175 0.314035 36.1786 1.62094L16.2008 19.8457L24.0435 25.8095Z" fill="#0877B9"/>
<path d="M36.6194 50.2925C37.4908 51.1875 38.5478 50.8938 38.5478 50.8938L50.2466 45.1161C51.7445 44.0923 51.5348 42.8228 51.5348 42.8228V8.3139C51.5348 6.79656 49.9862 6.2729 49.9862 6.2729L39.8458 1.37312C37.6305 0.000403523 36.1786 1.62093 36.1786 1.62093C36.1786 1.62093 38.0445 0.273403 38.9586 2.82343V48.4522C38.9586 48.7662 38.8919 49.0738 38.7587 49.3516C38.4922 49.8928 37.9112 50.3957 36.5227 50.1849L36.6194 50.2925Z" fill="#3C99D4"/>
</svg>
